<svg xmlns="http://www.w3.org/2000/svg" viewBox="0 0 512 512">
  <rect width="512" height="512" rx="64" fill="#3b82f6"/>
  <g fill="white">
    <rect x="100" y="160" width="200" height="24" rx="4"/>
    <rect x="100" y="200" width="160" height="16" rx="4"/>
    <rect x="100" y="232" width="180" height="16" rx="4"/>
    <rect x="100" y="264" width="140" height="16" rx="4"/>
    <rect x="100" y="296" width="200" height="2"/>
    <rect x="100" y="316" width="200" height="24" rx="4"/>
    <rect x="340" y="160" width="80" height="180" rx="8"/>
    <rect x="352" y="172" width="56" height="40" rx="4" fill="#3b82f6"/>
    <rect x="352" y="224" width="24" height="24" rx="4" fill="#3b82f6"/>
    <rect x="384" y="224" width="24" height="24" rx="4" fill="#3b82f6"/>
    <rect x="352" y="256" width="24" height="24" rx="4" fill="#3b82f6"/>
    <rect x="384" y="256" width="24" height="24" rx="4" fill="#3b82f6"/>
    <rect x="352" y="288" width="56" height="40" rx="4" fill="#22c55e"/>
  </g>
</svg>
